<svg
      xmlns="http://www.w3.org/2000/svg"
      width="25.89"
      height="25.89"
      viewBox="0 0 25.89 25.89"
    >
      <g id="ItemUpgrade" transform="translate(2.08)">
        <g id="Grupo_3643" data-name="Grupo 3643" transform="translate(-2.19)">
          <path
            id="Caminho_2202"
            data-name="Caminho 2202"
            d="M0,332.045a1.467,1.467,0,0,1,.839-1.007,1.266,1.266,0,0,1,1.418.2c.81.749,1.6,1.521,2.338,2.341A1.37,1.37,0,0,1,4,335.76c-.069.025-.155.009-.207.079H2.023a.437.437,0,0,0-.092-.037,2.242,2.242,0,0,1-1.426-.823A2.718,2.718,0,0,1,0,333.816Z"
            transform="translate(0.11 -309.949)"
            fill="#fbc321"
          ></path>
          <path
            id="Caminho_2203"
            data-name="Caminho 2203"
            d="M138.57,7.212a.816.816,0,0,0-.592.306Q136.389,9.111,134.8,10.7q-1.752,1.752-3.5,3.507c-.146.147-.225.184-.391.012-.643-.667-1.3-1.319-1.965-1.968-.123-.12-.128-.195-.017-.327q4.384-5.264,8.759-10.535a.945.945,0,0,1,.629-.334q3.651-.519,7.3-1.044a.8.8,0,0,1,.949.95q-.526,3.65-1.044,7.3a.972.972,0,0,1-.354.645q-5.251,4.36-10.5,8.728c-.152.127-.233.115-.366-.021q-.955-.976-1.931-1.93c-.159-.155-.177-.24-.007-.409q3.335-3.316,6.656-6.645a.91.91,0,0,0,.34-.676.757.757,0,0,0-.788-.74"
            transform="translate(-120.57 0)"
            fill="#fbc321"
          ></path>
          <path
            id="Caminho_2204"
            data-name="Caminho 2204"
            d="M76.148,215.018a2.3,2.3,0,0,1-.664,1.581.745.745,0,0,1-.99.069,1.587,1.587,0,0,1-.169-.152q-3.137-3.135-6.272-6.272a.765.765,0,0,1-.1-1.121,2.1,2.1,0,0,1,.863-.553,2.23,2.23,0,0,1,2.415.568c1.409,1.391,2.8,2.8,4.2,4.2a2.365,2.365,0,0,1,.714,1.683"
            transform="translate(-63.351 -195.228)"
            fill="#fbc321"
          ></path>
          <path
            id="Caminho_2205"
            data-name="Caminho 2205"
            d="M57.115,291.559c-.041-.035-.081-.065-.116-.1-.638-.637-1.274-1.276-1.914-1.911-.088-.087-.107-.139-.008-.237q.963-.949,1.914-1.911c.088-.088.141-.106.239-.008q.95.963,1.912,1.913c.091.09.1.144,0,.239-.641.634-1.277,1.273-1.914,1.911-.035.035-.075.067-.117.1"
            transform="translate(-51.415 -269.123)"
            fill="#fbc321"
          ></path>
          <path
            id="Caminho_2206"
            data-name="Caminho 2206"
            d="M204.919,1.251a.939.939,0,0,1,.219.978.4.4,0,0,1-.73,0,.889.889,0,0,1,.227-.973Z"
            transform="translate(-191.291 -1.172)"
            fill="#fbc321"
          ></path>
          <path
            id="Caminho_2207"
            data-name="Caminho 2207"
            d="M314.081,231.809c0,.4-.138.6-.411.6s-.4-.2-.4-.606.128-.6.4-.608.414.2.413.618"
            transform="translate(-293.314 -216.546)"
            fill="#fbc321"
          ></path>
          <path
            id="Caminho_2208"
            data-name="Caminho 2208"
            d="M313.974,263.837a1.962,1.962,0,0,1-.03.281.4.4,0,0,1-.769-.008,1.584,1.584,0,0,1-.01-.541.4.4,0,0,1,.792.009,2.074,2.074,0,0,1,0,.259h.015"
            transform="translate(-293.201 -246.539)"
            fill="#fbc321"
          ></path>
          <path
            id="Caminho_2209"
            data-name="Caminho 2209"
            d="M141.436,71.559c.079,0,.158-.006.236,0a.4.4,0,0,1,.374.389.393.393,0,0,1-.331.4,2.34,2.34,0,0,1-.542,0,.4.4,0,0,1-.338-.42.4.4,0,0,1,.389-.374c.071-.005.142,0,.213,0"
            transform="translate(-131.802 -67.024)"
            fill="#fbc321"
          ></path>
          <path
            id="Caminho_2210"
            data-name="Caminho 2210"
            d="M109.54,71.552c.405,0,.6.13.6.4s-.2.4-.6.4c-.071,0-.142,0-.213,0a.406.406,0,0,1-.395-.418.4.4,0,0,1,.4-.386c.071,0,.142,0,.213,0"
            transform="translate(-101.917 -67.018)"
            fill="#fbc321"
          ></path>
          <path
            id="Caminho_2211"
            data-name="Caminho 2211"
            d="M128.817,84.956c0,.055,0,.11,0,.166a.4.4,0,1,1-.805,0c-.006-.126-.006-.253,0-.378a.4.4,0,1,1,.8,0c0,.071,0,.142,0,.213"
            transform="translate(-119.788 -78.992)"
            fill="#fbc321"
          ></path>
          <path
            id="Caminho_2212"
            data-name="Caminho 2212"
            d="M294.814,250.421c.408,0,.593.127.59.406s-.192.4-.6.4c-.071,0-.142,0-.213,0a.4.4,0,0,1-.389-.422.392.392,0,0,1,.4-.382c.071,0,.142,0,.213,0"
            transform="translate(-275.453 -234.556)"
            fill="#fbc321"
          ></path>
          <path
            id="Caminho_2213"
            data-name="Caminho 2213"
            d="M128.845,52.964c0,.386-.13.58-.394.587s-.413-.2-.414-.592c0-.071,0-.142,0-.213a.4.4,0,1,1,.8.005c0,.071,0,.142,0,.213"
            transform="translate(-119.816 -49.02)"
            fill="#fbc321"
          ></path>
          <path
            id="Caminho_2214"
            data-name="Caminho 2214"
            d="M326.789,250.429c.409,0,.595.125.591.4s-.195.4-.6.4a1.447,1.447,0,0,1-.282-.013.391.391,0,0,1-.317-.433.386.386,0,0,1,.373-.358c.078-.006.157,0,.236,0"
            transform="translate(-305.405 -234.563)"
            fill="#fbc321"
          ></path>
          <path
            id="Caminho_2215"
            data-name="Caminho 2215"
            d="M218.157,21.264h-.047c-.36,0-.549-.142-.55-.407s.184-.4.548-.4c.087,0,.174,0,.26,0a.393.393,0,0,1,.4.385.4.4,0,0,1-.372.414,1.772,1.772,0,0,1-.236,0v.006"
            transform="translate(-203.667 -19.158)"
            fill="#fbc321"
          ></path>
          <path
            id="Caminho_2216"
            data-name="Caminho 2216"
            d="M205.431,33.908c0,.071.006.142,0,.212a.389.389,0,0,1-.373.383.385.385,0,0,1-.421-.357,2.263,2.263,0,0,1,0-.471.4.4,0,0,1,.8.021c.006.07,0,.142,0,.212h0"
            transform="translate(-191.55 -31.194)"
            fill="#fbc321"
          ></path>
          <path
            id="Caminho_2217"
            data-name="Caminho 2217"
            d="M186.238,20.463c.055,0,.11,0,.165,0a.393.393,0,0,1,.429.4.4.4,0,0,1-.428.407,2.59,2.59,0,0,1-.378,0,.4.4,0,0,1-.395-.415.393.393,0,0,1,.417-.389c.063,0,.126,0,.189,0"
            transform="translate(-173.763 -19.166)"
            fill="#fbc321"
          ></path>
        </g>
      </g>
    </svg>