<svg class="house-building__image" xmlns="http://www.w3.org/2000/svg" width="155.095" height="34.393" viewBox="0 0 155.095 34.393">
    <path id="Caminho_3361" data-name="Caminho 3361" d="M622,463.6c.338-.73.729-1.441,1-2.195a8.072,8.072,0,0,1,2.9-3.371,1.858,1.858,0,0,1,2.035-.248c.755.305,1.553.475,2.315.833a20.7,20.7,0,0,1,3.7,2.668,2.677,2.677,0,0,1,.963,1.3c.258.826,1.086,1.348,1.164,2.261a.162.162,0,0,0,.22.151.508.508,0,0,0,.268-.251,3.629,3.629,0,0,0,.193-.91c.053-1.4,1.093-2.357,1.573-3.564a1.5,1.5,0,0,1,.946-.76,3.29,3.29,0,0,0,1.428-.766,4.666,4.666,0,0,1,3.334-1.406,8.609,8.609,0,0,1,5.447,1.057,5.6,5.6,0,0,1,3.031,3.775,9.233,9.233,0,0,1,.373,2.83c-.2,1.809-.547,3.5-2.278,4.645-1.245.825-2.456,1.5-3.953,1.153a11.3,11.3,0,0,1-3.161-1.293,2.25,2.25,0,0,1-1.127-1.521,1.016,1.016,0,0,0-.3-.62.856.856,0,0,1-.2-1.124,1.123,1.123,0,0,0,.149-.749c-.251-.964.347-1.54,1.006-2.011a4.048,4.048,0,0,1,3.053-.644,2.19,2.19,0,0,1,1.408,2.574.512.512,0,0,1-.688.335c-.248-.071-.478-.2-.721-.291-1-.368-1.776-.089-2.068.741a1.853,1.853,0,0,0,1.065,2.241c1.594.509,3.13.615,4.495-.661a3.834,3.834,0,0,0,1.03-3,5.71,5.71,0,0,0-1.8-4.415,1.405,1.405,0,0,0-1.095-.478c-.821.052-1.6-.277-2.456-.183a2.78,2.78,0,0,0-1.795.769,3.208,3.208,0,0,1-1.708,1.022,1.944,1.944,0,0,0-.918.568,2.063,2.063,0,0,1-1.187.678.8.8,0,0,0-.679.681c-.246,1.447-.861,2.834-.71,4.346a2.856,2.856,0,0,0,.68,1.412c1.211,1.674,3.131,2.391,4.631,3.658.2.167.451.326.544.546a2.311,2.311,0,0,0,2.376,1.274c2.793.106,5.563.047,8.106-1.387a4.177,4.177,0,0,1,2.413-.5,1.891,1.891,0,0,0,1.451-.436,5.3,5.3,0,0,1,2.078-.813c.726-.221.931-.56.777-1.309a14.029,14.029,0,0,1-.074-5.953,6.562,6.562,0,0,1,1.151-2.791c1.747-2.117,5.12-4.554,8.638-3.147a1.93,1.93,0,0,0,.843.088,1.892,1.892,0,0,1,.694.017c1.643.581,3.453.633,4.979,1.593.773.486,1.761.442,2.532.973.232.159.508-.02.749-.1,3.337-1.078,6.749-1.9,10.083-2.992a25.7,25.7,0,0,1,10.608-.823,15.357,15.357,0,0,1,3.594,1.1c2.7.942,3.941,3.162,5.313,5.317.317.5.532.5.843.076.4-.545.745-1.131,1.173-1.65a6.906,6.906,0,0,1,4.5-2.807,1.983,1.983,0,0,0,1.026-.517,3.738,3.738,0,0,1,2.215-.725,28.017,28.017,0,0,1,8.545,1.026,25.955,25.955,0,0,1,3.074.856,11.816,11.816,0,0,0,2.685.181c.167.021.281-.112.387-.23a11.539,11.539,0,0,1,4.541-2.633c.642-.264,1.436-.014,2.144-.26a13.16,13.16,0,0,1,7.78.06c1.055.269,1.959.81,2.955,1.165a.77.77,0,0,1,.4.236c.493.814,1.157.7,1.936.486a5.487,5.487,0,0,1,4.012.444,1.379,1.379,0,0,0,1.774-.3,1.484,1.484,0,0,0,.207-1.739c-.2-.447-.49-.615-.825-.08a7.49,7.49,0,0,1-.453.633.5.5,0,0,1-.745.16c-.313-.212-.406-.549-.148-.8a7.249,7.249,0,0,0,1.04-1.6c.62-1.028,1.374-1,2.038,0a4.144,4.144,0,0,1,.355,4.222,2.556,2.556,0,0,1-3.6,1.4,7.147,7.147,0,0,0-2.251-.581c-.247-.022-.551-.071-.654.266a.5.5,0,0,0,.282.647.729.729,0,0,1,.413.448c.346,1.523,1.431,2.739,1.7,4.32.228,1.349.52,1.323,1.839.969a12.961,12.961,0,0,1,4.252-.073,4.394,4.394,0,0,0,1.689.109c.256-.079.5.093.717.243a3.092,3.092,0,0,0,3.751.115,10.261,10.261,0,0,0,4.039-4.012,11.314,11.314,0,0,0,1.512-4.781A4.01,4.01,0,0,0,772.5,455.1c-2-.58-3.218.37-4.357,1.717a2.767,2.767,0,0,0-.2,2.646,1.51,1.51,0,0,0,1.781.323c.585-.248.395-.724.28-1.134-.1-.346-.294-.663-.427-1a.677.677,0,0,1,.173-.85.7.7,0,0,1,.87.031,3.405,3.405,0,0,1,.751.781c.819,1.025.4,3.755-.771,4.552a1.2,1.2,0,0,1-1.16.272,3.909,3.909,0,0,1-2.511-2.451c-.215-.67-.3-1.359-.5-2.029a1.974,1.974,0,0,1,.47-2.036A37.275,37.275,0,0,0,769.671,453h2.495a8.454,8.454,0,0,0,1.532.549,2.276,2.276,0,0,1,.707.312c1.873,1.175,3.221,4.786,2.486,6.872-.56,1.59-1.227,3.145-1.9,4.693a7,7,0,0,1-3.851,3.57c-.568.251-.544.482-.188.825,1.456,1.4,2.325,3.242,3.584,4.793a3.015,3.015,0,0,1,.109,3.613c-.684.724-1.1.795-2.162.316a1.441,1.441,0,0,1-.785-1.631,4.119,4.119,0,0,1,.7-2.27.661.661,0,0,0-.013-.919,34.974,34.974,0,0,1-2.187-2.931,1.168,1.168,0,0,0-1.541-.355c-2.55.98-5.253.88-7.9,1.124a9.748,9.748,0,0,1-1.78-.149.68.68,0,0,0-.849.579,5.683,5.683,0,0,0-.31,1.75,1.366,1.366,0,0,1-.086.536,13.654,13.654,0,0,1-4.116,6.471,10.229,10.229,0,0,1-2.236,1.545,4.3,4.3,0,0,1-3.117.129,12.531,12.531,0,0,1-4.448-2.81,2.034,2.034,0,0,1-.329-2.379c1.2-2.713,3.5-2.608,5.612-.915a2.2,2.2,0,0,1,.709,1.831c0,.607-.517.85-1.023.517-.434-.286-.84-.612-1.272-.9a1.125,1.125,0,0,0-1.605.38c-.3.533-.142.953.558,1.289a9.642,9.642,0,0,1,1.719,1.062,2.442,2.442,0,0,0,2.973.11,9.579,9.579,0,0,0,3.247-2.974,12.8,12.8,0,0,0,2.192-4.1,4.43,4.43,0,0,0,.105-.691c.092-1.422.017-1.5-1.335-1.9a127.375,127.375,0,0,1-12.66-4.62,27.111,27.111,0,0,1-5.245-2.7c-.043-.029-.085-.076-.132-.081A10.432,10.432,0,0,1,734.2,462.5c-1.085-.5-1.843.066-2.557.739-.907.856-1.81,1.719-2.655,2.636a12.053,12.053,0,0,1-2.559,2c-1.982,1.239-3.823,2.69-5.866,3.843A6.426,6.426,0,0,0,719.214,473a1.805,1.805,0,0,1-1.921.56c-1.165-.378-2.439-.606-3.247-1.7a1.029,1.029,0,0,0-.407-.355c-1.618-.624-2.031-2.04-2.313-3.526-.087-.461-.237-.74-.75-.829a1.269,1.269,0,0,1-1.049-1.212,6.809,6.809,0,0,0-2.185-4.516,10.453,10.453,0,0,0-6.371-2.785,11.488,11.488,0,0,0-3.013-.226c-1.549.312-3.166-.106-4.663.551a2.743,2.743,0,0,1-1.137.235,5.054,5.054,0,0,0-3.171,1.088,10.841,10.841,0,0,1-3.585,1.248c-.532.149-1.365.124-1.425.729-.055.558.649.937,1.16,1.239a45.114,45.114,0,0,0,6.951,2.945c1.261.485,2.524.963,3.781,1.458a7.444,7.444,0,0,1,2.359,1.579c.7.652,1.561,1.117,2.311,1.715a9,9,0,0,1,2.8,4.571c.367,1.17-.758,3.08-1.916,3.519a1.661,1.661,0,0,1-1.818-.581,1.738,1.738,0,0,1-.476-2,6.643,6.643,0,0,1,1.066-1.893,1.108,1.108,0,0,0-.012-1.583,19.3,19.3,0,0,0-3.477-3.3,9.457,9.457,0,0,0-3.535-1.538,43.565,43.565,0,0,1-8.3-3.327,6.311,6.311,0,0,1-2.391-1.773c-.248-.35-.572-.289-.91-.2a12.288,12.288,0,0,0-2.359.983,15.048,15.048,0,0,1-2.9,1.268c-1.289.33-2.2,1.223-3.385,1.622-.731.247-1.09.957-1.777,1.228a43.8,43.8,0,0,0-4.986,2.724c-.659.364-1.285.786-1.927,1.179a.977.977,0,0,0-.363,1.466A4.445,4.445,0,0,0,665.3,475.1c.852.6,1.625,1.292,2.417,1.964a6.2,6.2,0,0,0,2.56,1.442,7.041,7.041,0,0,0,4-.462,3.4,3.4,0,0,0,1.874-1.284.726.726,0,0,0-.079-1.083,2.62,2.62,0,0,1,.206-4.056,2.289,2.289,0,0,1,3.427.684,4.934,4.934,0,0,1-1.743,5.749,14.5,14.5,0,0,1-4.623,2.178,6.87,6.87,0,0,1-5.49-.9c-1.506-.958-2.5-2.468-4.052-3.34-.274-.154-.412-.533-.658-.759-.451-.414-.381-1.357-1.263-1.312a3.437,3.437,0,0,0-2.758,1.238,32.072,32.072,0,0,1-2.654,3.054,1.956,1.956,0,0,0-.605,1.542,4.987,4.987,0,0,1-.348,1.67,3.3,3.3,0,0,0-.208,1.754,2.662,2.662,0,0,1,2.8-.55,1.418,1.418,0,0,1,1.139,1.332c.011,2.115-1.145,3.829-3.615,3.35-.265-.051-.381-.245-.5-.449a13.175,13.175,0,0,1-1.771-4.547A3.355,3.355,0,0,1,654,479.67c1.238-1.667,2.353-3.427,3.757-4.971.125-.138.395-.277.2-.507-.159-.186-.382-.036-.579.021-2.015.586-3.9,1.595-5.9,2.134-2.313.624-4.775,1.1-7.105-.217a7.261,7.261,0,0,0-1.09-.417,7.074,7.074,0,0,1-3.712-2.943c-.912-1.463-2.376-2.529-3.011-4.2-.569-1.5-1.706-2.712-2.139-4.3a3.5,3.5,0,0,0-1.469-1.949,21.774,21.774,0,0,0-3.677-2.182,2.689,2.689,0,0,0-3.238,1.4.871.871,0,0,0,.047.606,17.894,17.894,0,0,0,1.06,3,.693.693,0,0,1-.214.966,7.951,7.951,0,0,0-2.3,2.387c-.185.356-.573.252-.9.086A6.075,6.075,0,0,1,622,467.034Zm100.585-4.034c-2.056-.284-3.918.739-5.825,1.534a4.117,4.117,0,0,0-1.519.737,13.592,13.592,0,0,0-2.555,3.685c-.148.3-.255.568-.026.866a14.712,14.712,0,0,1,1.115,2.3,4.916,4.916,0,0,0,3.018,2.374,1.918,1.918,0,0,0,2.063-.494,9.414,9.414,0,0,1,3.069-2.2,10.284,10.284,0,0,0,4.391-2.823,8.335,8.335,0,0,1,.81-.729,35.788,35.788,0,0,0,3.024-2.809c.227-.252.552-.562.053-.8a13.819,13.819,0,0,0-2.995-1.265A18.717,18.717,0,0,0,722.585,459.569Zm19.6-.583a2.779,2.779,0,0,0-2.056.373,1.166,1.166,0,0,1-.588.184c-1.08,0-1.862.729-2.776,1.129-.433.189-.508.5-.048.8.5.327.975.7,1.495.988a19.322,19.322,0,0,0,3.848,2.022,27.432,27.432,0,0,1,3.168,1.071,71.707,71.707,0,0,0,9.549,3.353c1.325.361,1.764.051,1.62-1.275a10.052,10.052,0,0,0-5.063-7.863,11.119,11.119,0,0,0-4.858-1.15A24.16,24.16,0,0,0,742.185,458.987Zm-63.923,3.253a4.617,4.617,0,0,0-1.817-.933c-1.575-.515-3.3-.409-4.808-1.215a1.617,1.617,0,0,0-.69-.058,14.964,14.964,0,0,0-5.481,1.293,4.1,4.1,0,0,0-2.577,2.987,21.34,21.34,0,0,0-.335,5.419c0,.472.3.62.693.684a2.706,2.706,0,0,0,1.989-.715,51.464,51.464,0,0,1,5.506-3.508c1.567-.792,3.024-1.768,4.516-2.685C676.189,462.937,676.951,462.012,678.262,462.24Zm84.42,7.344a1.176,1.176,0,0,0,.889-.133c.18-.1.409-.2.375-.442-.039-.282-.308-.219-.5-.246a5.811,5.811,0,0,0-2.617.051c-.377.122-1.064.138-.933.686s.757.527,1.268.428a2.621,2.621,0,0,0,.37-.116A3.463,3.463,0,0,1,762.682,469.584Z" transform="translate(-622 -453)" fill="#B8A888"></path>
  </svg>