<svg width="60" height="60" viewBox="0 0 60 60" fill="none" xmlns="http://www.w3.org/2000/svg">
<g clip-path="url(#clip0_16_161)">
<path d="M13.8067 41.0755C14.0184 41.0755 14.2243 41.0038 14.396 40.8706C16.0767 39.5612 17.5345 37.9469 18.705 36.0986C19.5557 39.812 23.125 40.9936 26.1154 40.08C32.8769 38.2184 31.04 28.2579 30.2561 24.004V24.0045C30.1348 23.4258 29.6095 23.0572 29.072 23.1736C28.534 23.2896 28.1799 23.8479 28.2735 24.4321C29.3829 30.4546 29.934 36.7718 25.6194 37.9607C24.3459 38.312 22.5081 38.3253 21.5163 37.2097C20.5245 36.0946 20.31 34.0149 20.1713 32.642C19.6409 27.4107 21.078 21.5618 23.7487 18.0812C27.5964 13.0681 33.9759 14.8864 37.4343 16.4164C38.7514 16.9997 39.1987 19.4525 39.2593 20.3469H39.2589C39.2739 20.5778 39.3562 20.7974 39.4935 20.9744C40.9226 22.8141 45.1527 24.3121 46.9548 24.8861C46.9341 25.0626 46.8885 25.2349 46.8198 25.3966C46.6867 25.597 46.6199 25.8405 46.6312 26.0876C46.6952 27.2526 46.4563 28.4134 45.9409 29.439C45.4259 30.4646 44.6551 31.3132 43.7165 31.8893H37.2311C36.601 31.8903 35.9858 32.0968 35.4658 32.4817C34.9461 32.8666 34.5454 33.4117 34.316 34.0464C32.8896 38.2179 33.1309 42.8425 34.9828 46.8137C35.2579 47.3339 35.8688 47.5179 36.3532 47.2261C36.8371 46.9342 37.0139 46.2752 36.7491 45.7489C35.2114 42.3375 35.0143 38.3989 36.2036 34.8283C36.3687 34.3717 36.7759 34.0717 37.2293 34.0717H43.9658C44.5625 34.0452 48.6505 31.8943 48.6614 26.2884C48.8866 25.8364 49.5144 23.325 48.2395 23.0083C46.1098 22.396 42.4708 21.0176 41.2331 19.786C41.0897 18.6308 40.4915 15.408 38.1995 14.3916C24.2755 8.11705 17.3003 19.3371 18.149 32.7495L18.148 32.75C17.0331 35.2854 15.3354 37.4692 13.2164 39.0918C12.8665 39.373 12.7212 39.8637 12.8552 40.3121C12.9888 40.7606 13.372 41.0672 13.8075 41.0749L13.8067 41.0755Z" fill="#0284C7"/>
<path d="M29.6472 59.9333C29.8762 60.0222 30.1264 60.0222 30.3554 59.9333C39.5542 56.1517 47.5527 49.5877 53.3951 41.0248C57.4855 35.2149 59.7926 28.1675 59.9934 20.8692C60.1895 11.3724 55.9849 4.24387 48.4565 1.31114C42.7028 -0.93169 34.9406 -0.62566 30.0011 4.82782C25.0615 -0.627091 17.3003 -0.930649 11.5434 1.31062C4.01495 4.24296 -0.18729 11.3703 0.006413 20.8687C0.417427 37.5435 12.6531 52.6276 29.647 59.9327L29.6472 59.9333ZM12.2296 3.36913C17.6672 1.24059 25.0544 1.64646 29.2981 7.22282C29.6889 7.6352 30.3125 7.6352 30.7033 7.22282C34.9464 1.64633 42.3337 1.24007 47.7718 3.36913C54.4306 5.9629 58.149 12.3234 57.9726 20.821C57.5847 36.5365 45.9363 50.7107 30.0007 57.7334C14.0771 50.725 2.41153 36.5287 2.0275 20.821C1.85162 12.3234 5.57049 5.96212 12.2289 3.36913H12.2296Z" fill="#0284C7"/>
</g>
<defs>
<clipPath id="clip0_16_161">
<rect width="60" height="60" fill="white"/>
</clipPath>
</defs>
</svg>
