<svg width="60" height="60" viewBox="0 0 60 60" fill="none" xmlns="http://www.w3.org/2000/svg">
<path d="M53.4686 6.50604C49.8065 2.85771 44.9931 0 39.7084 0C34.6301 0 29.9995 2.64086 26.3939 6.07157C22.7623 9.52693 19.4167 14.4434 19.4167 19.6476C19.4167 22.6803 21.0063 25.4601 24.0058 26.3726C23.6517 34.7414 32.5608 38.4626 39.6796 38.4626C43.9506 38.4626 48.5765 37.3845 51.8691 34.5213C52.1361 34.289 52.1646 33.8843 51.9319 33.6169C51.6996 33.3499 51.2949 33.3218 51.0274 33.5537C46.509 37.4833 37.7504 38.3646 31.5041 35.5187C27.4896 33.6898 25.2786 30.6027 25.2786 26.8263C25.2786 25.705 25.477 24.6148 25.8679 23.5852C27.0301 20.5275 27.1272 17.4028 27.1272 14.7137C27.1272 7.74437 32.5542 1.22869 39.7828 1.28119C47.2179 1.32681 52.6323 8.3074 52.2712 15.4455C52.1335 18.1805 52.573 20.9445 53.5774 23.6603C53.8473 24.3911 54.0223 25.1616 54.0968 25.9505C54.1315 26.3188 54.53 26.5938 54.8765 26.5155C58.161 25.7722 60 22.9124 60 19.6474C60 15.4923 57.5584 10.5792 53.469 6.5053L53.4686 6.50604Z" fill="#0284C7"/>
<path d="M34.5516 18.0054C34.5516 19.1007 33.7757 19.9884 32.8185 19.9884C31.8609 19.9884 31.085 19.1007 31.085 18.0054C31.085 16.9105 31.8609 16.0228 32.8185 16.0228C33.7757 16.0228 34.5516 16.9105 34.5516 18.0054Z" fill="#0284C7"/>
<path d="M48.3312 18.0054C48.3312 19.1007 47.5552 19.9884 46.5981 19.9884C45.6409 19.9884 44.8645 19.1007 44.8645 18.0054C44.8645 16.9105 45.6409 16.0228 46.5981 16.0228C47.5552 16.0228 48.3312 16.9105 48.3312 18.0054Z" fill="#0284C7"/>
<path d="M43.8709 29.0122C43.5168 29.0122 43.2297 29.2993 43.2297 29.6533V30.2217C43.2297 31.0173 42.5835 31.6644 41.7896 31.6644C40.9957 31.6644 40.3495 31.0173 40.3495 30.2217V28.9641C40.424 28.9004 40.4914 28.8255 40.5475 28.736L42.1307 26.2076C42.5442 25.5472 42.07 24.6896 41.2916 24.6896H38.125C37.3466 24.6896 36.8724 25.5476 37.2859 26.2076L38.8691 28.736C38.9252 28.8255 38.993 28.9004 39.0671 28.9641V30.2217C39.0671 31.0173 38.4209 31.6644 37.627 31.6644C36.8331 31.6644 36.1869 31.0173 36.1869 30.2217V29.6533C36.1869 29.2993 35.8998 29.0122 35.5457 29.0122C35.1916 29.0122 34.9045 29.2993 34.9045 29.6533V30.2217C34.9045 31.7242 36.1257 32.9463 37.6266 32.9463C38.4611 32.9463 39.2082 32.568 39.7079 31.9741C40.2076 32.5676 40.9547 32.9463 41.7893 32.9463C43.2905 32.9463 44.5117 31.7238 44.5117 30.2217V29.6533C44.5117 29.2993 44.225 29.0122 43.871 29.0122H43.8709Z" fill="#0284C7"/>
<path d="M28.827 44.9561C28.1281 44.3827 27.3534 43.8482 27.3534 42.8378V41.0377H27.6083C27.9624 41.0377 28.2495 40.7506 28.2495 40.3966V36.5386C28.2495 36.1845 27.9624 35.8974 27.6083 35.8974H18.8905C18.5364 35.8974 18.2493 36.1845 18.2493 36.5386V40.397C18.2493 40.7511 18.5364 41.0382 18.8905 41.0382H19.1454V42.8383C19.1454 43.4167 18.8888 43.9587 18.4418 44.3253C17.4231 45.1603 16.499 45.9898 16.499 47.4353V57.0514C16.499 58.6774 17.8216 60 19.4476 60H27.0517C28.6777 60 30.0003 58.677 30.0003 57.0514V47.4345C30.0003 46.4706 29.5725 45.567 28.8272 44.956L28.827 44.9561ZM18.485 45.9476L19.255 45.3164C20.0004 44.7054 20.4281 43.8017 20.4281 42.8379V41.0378H26.0719V42.8379C26.0719 43.8017 26.4997 44.7054 27.245 45.3164C27.923 45.8726 28.6768 46.3816 28.7145 47.3601H17.786C17.8061 46.8298 18.0748 46.284 18.4854 45.9475L18.485 45.9476ZM27.0517 58.7179H19.4479C18.5289 58.7179 17.7814 57.9704 17.7814 57.0513V48.6419L28.7184 48.6415V55.0516H25.089C24.7349 55.0516 24.4478 55.3387 24.4478 55.6928C24.4478 56.0469 24.7349 56.334 25.089 56.334H28.7184V57.0513C28.7184 57.97 27.9705 58.7179 27.0518 58.7179L27.0517 58.7179Z" fill="#0284C7"/>
<path d="M43.0716 56.1696H42.1705C41.8164 56.1696 41.5293 55.8825 41.5293 55.5285C41.5293 55.1744 41.8164 54.8873 42.1705 54.8873H43.0716C43.4256 54.8873 43.7127 55.1744 43.7127 55.5285C43.7123 55.8825 43.4256 56.1696 43.0716 56.1696Z" fill="#0284C7"/>
<path d="M38.8448 56.1696H37.9437C37.5896 56.1696 37.3025 55.8825 37.3025 55.5285C37.3025 55.1744 37.5896 54.8873 37.9437 54.8873H38.8448C39.1988 54.8873 39.4859 55.1744 39.4859 55.5285C39.4859 55.8825 39.1988 56.1696 38.8448 56.1696Z" fill="#0284C7"/>
<path d="M40.5076 58.7336C40.1536 58.7336 39.8665 58.4465 39.8665 58.0924V57.1909C39.8665 56.8368 40.1536 56.5497 40.5076 56.5497C40.8617 56.5497 41.1488 56.8368 41.1488 57.1909V58.0924C41.1488 58.4465 40.8617 58.7336 40.5076 58.7336Z" fill="#0284C7"/>
<path d="M40.5076 54.5068C40.1536 54.5068 39.8665 54.2196 39.8665 53.8656V52.9641C39.8665 52.61 40.1536 52.3229 40.5076 52.3229C40.8617 52.3229 41.1488 52.61 41.1488 52.9641V53.8656C41.1488 54.2201 40.8617 54.5068 40.5076 54.5068Z" fill="#0284C7"/>
<path d="M54.6106 47.1954H53.7095C53.3555 47.1954 53.0684 46.9083 53.0684 46.5542C53.0684 46.2001 53.3555 45.913 53.7095 45.913H54.6106C54.9647 45.913 55.2518 46.2001 55.2518 46.5542C55.2518 46.9083 54.9647 47.1954 54.6106 47.1954Z" fill="#0284C7"/>
<path d="M50.3841 47.1954H49.483C49.1289 47.1954 48.8418 46.9083 48.8418 46.5542C48.8418 46.2001 49.1289 45.913 49.483 45.913H50.3841C50.7381 45.913 51.0252 46.2001 51.0252 46.5542C51.0248 46.9083 50.7381 47.1954 50.3841 47.1954Z" fill="#0284C7"/>
<path d="M52.0467 49.7593C51.6926 49.7593 51.4055 49.4722 51.4055 49.1181V48.2166C51.4055 47.8625 51.6926 47.5754 52.0467 47.5754C52.4008 47.5754 52.6879 47.8625 52.6879 48.2166V49.1181C52.6875 49.4722 52.4008 49.7593 52.0467 49.7593Z" fill="#0284C7"/>
<path d="M52.0467 45.5325C51.6926 45.5325 51.4055 45.2454 51.4055 44.8913V43.9898C51.4055 43.6357 51.6926 43.3486 52.0467 43.3486C52.4008 43.3486 52.6879 43.6357 52.6879 43.9898V44.8913C52.6875 45.2454 52.4008 45.5325 52.0467 45.5325Z" fill="#0284C7"/>
<path d="M13.6557 43.8C13.6557 44.2742 13.2753 44.6588 12.8061 44.6588C12.3366 44.6588 11.9565 44.2742 11.9565 43.8C11.9565 43.3254 12.3366 42.9412 12.8061 42.9412C13.2753 42.9412 13.6557 43.3254 13.6557 43.8Z" fill="#0284C7"/>
<path d="M22.2336 55.6929C22.2336 56.1671 21.8532 56.5517 21.384 56.5517C20.9149 56.5517 20.5344 56.1671 20.5344 55.6929C20.5344 55.2187 20.9149 54.834 21.384 54.834C21.8532 54.834 22.2336 55.2187 22.2336 55.6929Z" fill="#0284C7"/>
<path d="M54.5581 30.405C54.5581 30.8796 54.1776 31.2638 53.7085 31.2638C53.2393 31.2638 52.8589 30.8796 52.8589 30.405C52.8589 29.9308 53.2393 29.5462 53.7085 29.5462C54.1776 29.5462 54.5581 29.9308 54.5581 30.405Z" fill="#0284C7"/>
<path d="M14.2986 47.8286H2.80234V44.1623H7.4555C7.79032 44.1623 8.08915 43.9174 8.12095 43.5843C8.15736 43.2022 7.8577 42.8803 7.48312 42.8803L2.80231 42.8799V39.9205H5.93492C6.26974 39.9205 6.56857 39.6757 6.60037 39.3426C6.63678 38.9604 6.33712 38.6386 5.96254 38.6386H2.80229V35.6792H5.9349C6.26972 35.6792 6.56855 35.4344 6.60035 35.1012C6.63676 34.7191 6.3371 34.3973 5.96252 34.3973L2.80227 34.3968V31.4374H7.45544C7.79026 31.4374 8.08908 31.1926 8.12088 30.8595C8.15729 30.4774 7.85764 30.1555 7.48306 30.1555H2.80225V27.1961H5.93486C6.26968 27.1961 6.56851 26.9513 6.60031 26.6181C6.63672 26.236 6.33706 25.9142 5.96248 25.9142L2.80223 25.9138V22.9544H5.93484C6.26966 22.9544 6.56849 22.7095 6.60028 22.3764C6.6367 21.9943 6.33704 21.6724 5.96246 21.6724H2.80221V18.713H7.45537C7.79019 18.713 8.08902 18.4682 8.12082 18.135C8.15723 17.7529 7.85757 17.4311 7.48299 17.4311H2.80219V15.4314C2.80219 14.511 3.54841 13.7648 4.46878 13.7648H10.4972C11.4175 13.7648 12.1638 14.511 12.1638 15.4314V39.4828C12.1638 39.8369 12.4509 40.124 12.805 40.124C13.1591 40.124 13.4462 39.8369 13.4462 39.4828V15.4314C13.4462 14.3231 12.8313 13.3563 11.9257 12.8529V11.7384C11.9257 10.1986 11.1397 8.83918 9.94905 8.04065V6.78172C9.94905 5.64418 9.17353 4.68654 8.12432 4.40368V0.668791C8.12432 0.333969 7.87948 0.0351372 7.54593 0.00333722C7.16382 -0.0330742 6.84197 0.266587 6.84197 0.641587V4.40369C5.79274 4.68703 5.01724 5.6442 5.01724 6.78173V8.04066C3.82658 8.8392 3.04059 10.1986 3.04059 11.7384V12.8529C2.13491 13.3568 1.52014 14.3236 1.52014 15.4314V47.8292L0.668448 47.8297C0.33363 47.8297 0.0348012 48.0745 0.00300157 48.4076C-0.0334095 48.7897 0.266249 49.1116 0.640827 49.1116H4.09486V52.4464L2.0416 55.0334C1.18949 56.107 1.97673 57.7363 3.34701 57.7363H11.6346C13.0073 57.7363 13.7938 56.1015 12.9366 55.0292L10.872 52.4452V49.1121H14.326C14.701 49.1121 15.0007 48.7903 14.9639 48.4082C14.9321 48.0746 14.6332 47.8298 14.2984 47.8298L14.2986 47.8286ZM6.29987 6.78111C6.29987 6.12863 6.83097 5.5975 7.48347 5.5975C8.13596 5.5975 8.66706 6.12861 8.66706 6.78111V7.45117C7.87814 7.23563 7.08886 7.23563 6.29987 7.45117V6.78111Z" fill="#0284C7"/>
</svg>
