<svg width="60" height="60" viewBox="0 0 60 60" fill="none" xmlns="http://www.w3.org/2000/svg">
<path d="M58.9123 17.0976H50.3625V1.05928C50.3625 0.47527 49.8741 0 49.2741 0H1.08837C0.488318 0 0 0.47527 0 1.05928V51.0383C0 55.8949 4.04272 59.8451 9.00877 59.8451H52.7291C53.1671 59.9456 53.621 60 54.0908 60C57.348 60 59.9995 57.4115 59.9995 54.2287L60 18.1566C60 17.573 59.5117 17.0978 58.9121 17.0978L58.9123 17.0976ZM9.01041 57.727C5.24095 57.727 2.17788 54.7278 2.17788 51.0388L2.17838 2.11864H48.187V54.2291C48.187 55.5442 48.6409 56.7554 49.4 57.7273L9.01041 57.727ZM57.8244 54.2288C57.8244 56.244 56.1494 57.882 54.0923 57.882C52.0352 57.882 50.3628 56.244 50.3628 54.2288V19.2155H57.8244V54.2288Z" fill="#0284C7"/>
<path d="M8.70409 26.7516H24.4229C25.023 26.7516 25.5113 26.2763 25.5113 25.6923V8.09432C25.5113 7.5103 25.023 7.03503 24.4229 7.03503H8.70409C8.10404 7.03503 7.61572 7.5103 7.61572 8.09432V25.6923C7.61572 26.2763 8.10404 26.7516 8.70409 26.7516ZM9.79246 9.1536H23.3354V24.6339L9.79246 24.6334V9.1536Z" fill="#0284C7"/>
<path d="M43.6442 8.19788H30.9299C30.3299 8.19788 29.8416 8.67315 29.8416 9.25716C29.8416 9.84117 30.3299 10.3164 30.9299 10.3164H43.6442C44.2442 10.3164 44.7325 9.84117 44.7325 9.25716C44.7325 8.67315 44.2442 8.19788 43.6442 8.19788Z" fill="#0284C7"/>
<path d="M43.6442 13.8812H30.9299C30.3299 13.8812 29.8416 14.3565 29.8416 14.9405C29.8416 15.5245 30.3299 15.9998 30.9299 15.9998H43.6442C44.2442 15.9998 44.7325 15.5245 44.7325 14.9405C44.7325 14.3565 44.2442 13.8812 43.6442 13.8812Z" fill="#0284C7"/>
<path d="M43.6442 19.567H30.9299C30.3299 19.567 29.8416 20.0423 29.8416 20.6263C29.8416 21.2103 30.3299 21.6856 30.9299 21.6856H43.6442C44.2442 21.6856 44.7325 21.2103 44.7325 20.6263C44.7325 20.0423 44.2442 19.567 43.6442 19.567Z" fill="#0284C7"/>
<path d="M26.5209 35.3729H7.75658C7.15653 35.3729 6.66821 35.8482 6.66821 36.4322C6.66821 37.0162 7.15653 37.4915 7.75658 37.4915H26.5209C27.1209 37.4915 27.6092 37.0162 27.6092 36.4322C27.6092 35.8482 27.1209 35.3729 26.5214 35.3729H26.5209Z" fill="#0284C7"/>
<path d="M42.6279 35.3729H33.2446C32.6446 35.3729 32.1562 35.8482 32.1562 36.4322C32.1562 37.0162 32.6446 37.4915 33.2446 37.4915H42.6279C43.228 37.4915 43.7163 37.0162 43.7163 36.4322C43.7163 35.8482 43.2275 35.3729 42.6279 35.3729Z" fill="#0284C7"/>
<path d="M26.5209 42.4357H7.75658C7.15653 42.4357 6.66821 42.911 6.66821 43.495C6.66821 44.079 7.15653 44.5543 7.75658 44.5543H26.5209C27.1209 44.5543 27.6092 44.079 27.6092 43.495C27.6092 42.911 27.1209 42.4357 26.5214 42.4357H26.5209Z" fill="#0284C7"/>
<path d="M42.6279 42.4357H33.2446C32.6446 42.4357 32.1562 42.911 32.1562 43.495C32.1562 44.079 32.6446 44.5543 33.2446 44.5543H42.6279C43.228 44.5543 43.7163 44.079 43.7163 43.495C43.7163 42.911 43.2275 42.4357 42.6279 42.4357Z" fill="#0284C7"/>
<path d="M26.5209 49.4984H7.75658C7.15653 49.4984 6.66821 49.9737 6.66821 50.5577C6.66821 51.1417 7.15653 51.617 7.75658 51.617H26.5209C27.1209 51.617 27.6092 51.1417 27.6092 50.5577C27.6092 49.9737 27.1209 49.4984 26.5214 49.4984H26.5209Z" fill="#0284C7"/>
<path d="M42.6279 49.4984H33.2446C32.6446 49.4984 32.1562 49.9737 32.1562 50.5577C32.1562 51.1417 32.6446 51.617 33.2446 51.617H42.6279C43.228 51.617 43.7163 51.1417 43.7163 50.5577C43.7163 49.9737 43.2275 49.4984 42.6279 49.4984Z" fill="#0284C7"/>
</svg>
